<svg version="1.0" xmlns="http://www.w3.org/2000/svg"
 width="210.000000pt" height="300.000000pt" viewBox="0 0 210.000000 300.000000"
 preserveAspectRatio="xMidYMid meet">
<metadata>
Created by potrace 1.10, written by Peter Selinger 2001-2011
</metadata>
<g transform="translate(0.000000,300.000000) scale(0.100000,-0.100000)"
fill="#000000" stroke="none">
<path d="M46 2951 c-3 -5 9 -28 27 -52 18 -24 120 -176 227 -336 171 -257 220
-320 220 -284 0 6 -30 54 -67 108 -38 54 -140 205 -227 336 -88 130 -163 237
-167 237 -4 0 -10 -4 -13 -9z"/>
<path d="M2023 2903 c-21 -32 -40 -60 -43 -63 -17 -17 -370 -552 -370 -561 0
-32 45 27 240 318 118 176 221 327 227 335 12 14 8 28 -9 28 -4 0 -25 -26 -45
-57z"/>
<path d="M286 2262 c-3 -5 3 -20 13 -33 13 -18 19 -43 20 -99 1 -41 6 -109 11
-150 16 -130 18 -170 8 -170 -11 0 -8 -23 12 -127 7 -35 16 -63 21 -63 5 0 9
-15 9 -34 0 -64 75 -266 162 -434 54 -105 87 -156 96 -147 4 3 0 10 -8 15 -8
5 -11 12 -7 16 4 4 8 5 10 3 1 -2 41 -62 88 -134 47 -71 115 -161 151 -200
142 -152 171 -185 167 -190 -3 -2 -24 14 -47 35 -23 22 -42 36 -42 32 0 -5 13
-20 28 -33 15 -14 39 -40 54 -58 28 -37 37 -36 69 12 l23 32 -24 -20 c-50 -43
-10 9 85 111 55 59 119 127 143 153 34 36 42 41 37 22 -6 -21 -5 -22 8 -10 10
9 12 18 5 26 -6 8 10 38 50 95 32 45 65 94 72 108 13 23 14 24 21 5 6 -17 8
-17 8 -2 1 9 5 17 10 17 16 0 137 256 175 370 20 58 39 129 42 158 4 29 11 55
15 58 5 3 9 16 9 29 0 14 5 45 12 69 10 36 9 50 -1 70 -9 15 -11 37 -7 58 8
36 24 245 25 320 1 27 7 53 16 62 23 23 19 40 -7 30 -28 -10 -1317 -22 -1413
-12 -38 3 -80 9 -91 13 -12 4 -24 2 -28 -3z m837 -39 c-33 -6 -28 -23 5 -23
24 0 30 -6 39 -35 8 -23 8 -37 1 -41 -6 -4 -5 -10 3 -15 24 -15 27 -10 17 34
-15 69 -15 82 2 78 15 -3 203 -2 224 2 6 1 10 -7 9 -18 -4 -33 17 -85 34 -85
14 0 14 2 0 18 -38 42 -14 54 46 22 20 -11 40 -20 43 -20 14 0 -27 30 -60 44
-41 17 -52 50 -12 40 13 -3 86 -6 162 -7 l139 -2 3 -45 c4 -46 -15 -287 -25
-327 -4 -18 -12 -23 -39 -23 -21 0 -40 -8 -53 -21 -15 -16 -23 -19 -38 -11
-11 6 -25 7 -32 2 -10 -6 -8 -9 8 -15 27 -8 27 -21 -1 -29 -18 -5 -20 -8 -9
-15 20 -13 45 -3 65 27 16 25 22 27 72 24 54 -4 59 -7 48 -36 -5 -12 -20 -16
-60 -16 -33 0 -64 -6 -79 -16 -15 -10 -34 -14 -50 -10 -20 5 -26 2 -31 -19
l-6 -25 -27 29 c-23 25 -32 28 -80 25 -30 -2 -59 -8 -65 -14 -5 -5 -23 -10
-38 -10 -18 0 -40 -11 -59 -29 -26 -25 -34 -28 -53 -20 -37 17 -101 -6 -131
-46 -34 -44 -45 -129 -21 -174 16 -32 34 -67 55 -111 11 -23 11 -22 7 15 -2
23 -13 61 -25 85 -24 50 -27 97 -8 143 l14 32 306 -3 c237 -2 307 -5 307 -15
0 -22 -50 -168 -93 -274 l-42 -103 -101 0 c-78 0 -104 -3 -114 -15 -14 -17
-50 -20 -50 -5 0 6 7 10 16 10 21 0 43 29 44 56 0 15 9 24 33 30 22 7 33 17
35 33 3 17 8 21 20 15 32 -14 80 -16 87 -4 4 7 3 15 -2 19 -5 3 -12 14 -16 24
-3 9 -14 17 -23 17 -12 0 -15 5 -9 23 12 41 25 110 21 115 -9 8 -48 -11 -70
-35 -15 -16 -26 -21 -30 -14 -4 6 -23 11 -42 11 -19 0 -34 5 -34 10 0 6 -4 10
-10 10 -5 0 -10 -15 -10 -33 0 -26 6 -36 25 -45 31 -14 32 -34 3 -47 -13 -6
-24 -20 -26 -32 -4 -29 -32 -30 -32 -2 0 29 -35 76 -70 94 -37 19 -50 19 -79
-4 -18 -14 -21 -22 -13 -37 9 -19 25 -54 36 -84 3 -8 3 11 0 43 -5 55 -5 57
18 57 30 -1 60 -27 77 -67 7 -17 20 -34 28 -38 20 -7 53 3 53 16 0 5 14 23 31
40 25 24 29 35 24 59 -6 25 -4 28 14 23 12 -3 32 2 45 10 l24 16 -10 -41 c-7
-33 -6 -44 8 -59 16 -18 16 -19 -14 -19 -21 0 -36 -7 -44 -20 -7 -11 -18 -20
-24 -20 -17 0 -51 -42 -58 -71 -3 -16 -20 -35 -40 -47 -19 -12 -44 -39 -56
-61 -11 -23 -24 -41 -29 -41 -12 0 -26 76 -22 118 1 18 -2 32 -8 32 -11 0 -14
-35 -11 -122 1 -45 0 -48 -24 -48 -14 0 -26 -4 -26 -10 0 -5 11 -10 25 -10 14
0 25 5 25 10 0 6 15 10 34 10 34 0 66 31 66 64 0 12 25 15 144 18 94 2 142 0
138 -7 -36 -64 -38 -65 -135 -65 -51 0 -109 -3 -129 -6 -70 -12 -38 -24 62
-24 l101 0 -17 -32 c-30 -59 -104 -161 -167 -233 -80 -90 -220 -235 -228 -235
-3 0 -4 11 -1 25 3 17 -1 27 -12 31 -9 3 -16 16 -16 28 -1 19 -2 19 -11 4 -7
-13 -5 -25 7 -45 15 -24 12 -23 -21 9 -37 36 -38 38 -22 56 17 19 16 20 -15
27 -29 6 -30 8 -12 14 18 5 20 8 9 18 -9 8 -16 9 -20 3 -11 -18 -44 -10 -57
14 -7 13 -30 43 -51 65 -21 23 -35 41 -32 41 3 0 -5 11 -18 25 -13 14 -44 62
-70 105 -46 79 -46 80 -22 80 14 0 25 4 25 9 0 9 -48 21 -85 21 -20 0 -26 8
-53 63 -2 4 13 7 34 7 30 0 46 -8 84 -44 81 -76 164 -72 235 10 33 39 39 53
36 85 -2 31 1 39 14 39 13 0 16 -10 14 -52 -3 -68 -27 -112 -62 -116 -32 -4
-37 -22 -6 -22 18 0 20 -5 18 -37 -3 -51 -1 -63 10 -63 6 0 7 16 4 35 -3 19
-1 40 5 47 33 42 49 88 50 146 1 51 -2 64 -18 72 -13 7 -21 7 -25 0 -30 -49
-33 87 -4 157 10 24 24 82 30 130 7 49 16 94 22 101 7 8 2 24 -17 50 -14 21
-26 45 -26 54 0 8 -9 27 -21 42 -14 17 -19 35 -15 49 5 21 -18 102 -36 122
-14 16 -8 -29 7 -49 20 -27 19 -73 -2 -85 -16 -10 -16 -13 10 -32 15 -11 27
-28 27 -38 0 -14 -7 -16 -36 -13 -33 4 -35 6 -33 37 2 18 -2 39 -8 46 -6 8
-13 41 -17 74 -10 87 -36 156 -80 203 -53 59 -159 65 -230 14 -63 -45 -78 -84
-81 -212 l-2 -75 -39 3 c-21 2 -40 5 -42 7 -7 7 -31 245 -32 311 0 71 0 72 27
76 16 2 165 5 333 6 167 2 306 4 307 6 2 1 31 3 66 3 34 1 52 -1 40 -4z m-395
-117 c33 -17 72 -61 72 -81 0 -8 4 -15 8 -15 20 0 54 -219 52 -333 0 -20 4
-46 10 -56 6 -12 7 -28 1 -43 l-9 -23 -11 28 c-6 16 -11 34 -11 41 0 29 -35
80 -104 148 -82 82 -93 103 -76 153 11 34 38 51 74 46 11 -2 16 2 12 8 -11 17
-51 13 -76 -7 -26 -21 -40 -112 -21 -135 15 -18 3 -28 -24 -21 -13 3 -26 1
-29 -4 -10 -16 22 -35 51 -29 30 6 81 -22 102 -56 17 -26 6 -34 -17 -14 -12
11 -36 17 -65 17 -42 0 -49 4 -81 43 -19 24 -44 63 -55 88 -11 24 -21 36 -21
25 0 -30 60 -142 91 -170 16 -15 29 -31 29 -38 0 -6 12 -27 27 -47 23 -30 28
-47 30 -103 1 -64 -1 -70 -32 -108 -18 -22 -37 -54 -40 -72 l-7 -31 -14 32
c-8 19 -14 41 -14 51 0 10 -4 20 -9 22 -5 2 -11 23 -14 48 -3 25 -13 65 -22
90 -9 25 -18 62 -20 83 -3 20 -8 45 -13 55 -5 9 -7 23 -5 30 3 7 -1 36 -8 65
-45 185 23 325 159 326 29 1 65 -5 80 -13z m-259 -338 c12 -33 6 -38 -50 -38
-42 0 -51 3 -58 23 -8 20 -5 22 38 28 25 3 50 7 54 7 4 1 11 -8 16 -20z m205
-74 c5 -12 18 -15 58 -13 51 3 54 2 70 -30 9 -19 14 -39 10 -45 -4 -7 -8 -4
-10 7 -3 14 -14 17 -56 17 -54 0 -65 7 -94 58 -10 18 -10 22 2 22 8 0 17 -7
20 -16z m-184 -40 c0 -22 -4 -24 -50 -24 -43 0 -52 3 -59 23 -8 20 -5 22 38
27 60 7 71 3 71 -26z m495 9 c23 -29 18 -33 -39 -33 -47 0 -56 3 -61 21 -4 12
-2 24 3 28 21 13 83 3 97 -16z m530 -13 c6 -28 35 -44 35 -20 0 6 9 20 20 32
17 18 29 21 102 19 45 -1 84 -4 86 -6 2 -2 1 -13 -3 -24 -6 -19 -14 -21 -94
-21 -67 0 -92 -4 -101 -15 -7 -8 -18 -15 -25 -15 -7 0 -15 7 -19 15 -8 21
-192 21 -220 0 -24 -18 -166 -21 -166 -4 0 6 6 9 13 6 6 -2 24 3 39 11 24 14
28 14 43 -1 21 -22 31 -21 54 2 21 21 113 49 176 54 51 3 52 2 60 -33z m-689
-73 c3 -3 6 -46 7 -96 2 -73 5 -91 16 -89 15 3 50 120 51 168 0 22 4 25 40 25
27 1 40 -3 40 -13 0 -27 -32 -158 -47 -190 -10 -23 -14 -57 -11 -110 l3 -77
-120 0 -120 0 -18 40 c-11 21 -20 61 -21 87 -1 41 3 51 35 85 41 42 50 74 39
133 -4 22 -6 41 -4 42 4 5 105 0 110 -5z m-310 -62 c17 -93 55 -215 86 -272
15 -29 24 -53 20 -53 -4 0 0 -4 8 -10 8 -5 11 -12 7 -16 -4 -4 -13 0 -20 9 -6
8 -25 17 -40 19 -25 3 -33 13 -63 83 -19 44 -50 123 -69 175 -18 52 -36 103
-40 113 -7 16 -2 18 46 15 l54 -3 11 -60z m309 -373 c72 4 82 2 78 -12 -6 -22
-55 -50 -88 -50 -28 0 -95 35 -95 50 0 5 -3 17 -7 27 -7 17 -6 17 12 -1 16
-16 30 -18 100 -14z"/>
<path d="M816 2188 c16 -28 48 -58 63 -58 11 0 9 4 -7 16 -35 24 -27 37 17 30
22 -3 42 -3 44 1 3 5 -5 8 -16 8 -12 1 -41 4 -65 8 -34 6 -42 5 -36 -5z"/>
<path d="M959 2190 c-18 -12 40 -21 60 -10 11 5 26 7 34 4 8 -3 18 0 22 6 8
12 -95 12 -116 0z"/>
<path d="M1591 2181 c-14 -4 -26 -13 -29 -21 -2 -9 0 -11 5 -5 4 6 16 11 26
13 21 4 23 -21 2 -38 -22 -18 -19 -33 4 -21 29 16 48 84 22 80 -3 -1 -17 -4
-30 -8z"/>
<path d="M883 2094 c-7 -7 -13 -26 -12 -41 l1 -28 14 34 c17 38 15 56 -3 35z"/>
<path d="M1443 2076 c-13 -7 -37 -33 -55 -57 -36 -49 -67 -78 -85 -79 -17 0
-16 -8 2 -26 12 -13 15 -13 15 -1 0 7 36 50 80 95 79 82 85 91 43 68z"/>
<path d="M1542 2040 c32 -30 84 -42 75 -17 -2 6 -12 11 -21 9 -9 -2 -28 6 -43
17 -40 32 -48 25 -11 -9z"/>
<path d="M1060 2051 c0 -24 52 -61 85 -61 20 0 35 -6 39 -15 10 -28 29 -17 21
12 -9 36 -12 38 -29 24 -22 -19 -65 -8 -92 24 -13 15 -24 23 -24 16z"/>
<path d="M1490 2012 c0 -13 -7 -25 -15 -28 -17 -7 -20 -24 -5 -24 5 0 17 11
26 26 13 19 14 28 5 37 -8 8 -11 5 -11 -11z"/>
<path d="M1185 1930 c-3 -6 4 -10 18 -10 13 0 36 -9 50 -20 30 -24 45 -26 26
-4 -14 17 -62 44 -78 44 -5 0 -13 -4 -16 -10z"/>
<path d="M1415 1919 c-5 -5 -19 -16 -30 -24 -17 -12 -18 -14 -3 -15 9 0 30 11
45 25 18 16 23 24 13 24 -8 0 -19 -4 -25 -10z"/>
<path d="M1512 1885 c-15 -32 -16 -82 -2 -90 5 -3 9 2 8 12 0 10 0 29 0 42 2
20 4 21 17 11 8 -7 15 -22 15 -33 0 -15 3 -18 11 -10 8 8 5 22 -10 52 -12 22
-23 41 -25 41 -1 0 -8 -11 -14 -25z"/>
<path d="M1306 1798 c-4 -9 -3 -26 4 -37 12 -24 67 -29 103 -10 12 7 34 12 49
11 17 0 26 3 22 10 -4 6 -23 7 -45 4 -129 -20 -117 -21 -121 11 -3 22 -6 24
-12 11z"/>
<path d="M1140 1186 c0 -30 -4 -57 -9 -60 -5 -3 -12 -18 -15 -33 -7 -29 -37
-94 -47 -103 -13 -12 -28 -122 -19 -140 6 -10 10 -36 11 -57 0 -34 1 -36 11
-16 8 16 7 31 -4 59 -20 51 -5 125 38 187 19 26 34 53 34 60 0 7 4 17 9 23 11
11 14 33 12 92 -2 62 -21 51 -21 -12z"/>
<path d="M962 904 c-10 -18 -4 -61 9 -70 5 -3 9 15 9 40 0 49 -4 55 -18 30z"/>
<path d="M982 808 c-16 -16 -15 -53 2 -67 11 -9 13 -3 12 34 0 25 -1 45 -1 45
-1 0 -6 -5 -13 -12z"/>
<path d="M1143 706 c16 -13 14 -15 -20 -29 -29 -12 -33 -16 -15 -16 12 -1 38
8 58 18 34 18 34 20 16 30 -12 6 -29 11 -39 11 -17 -1 -17 -1 0 -14z"/>
<path d="M645 2100 c-4 -6 7 -10 26 -10 25 0 41 -9 71 -42 22 -24 36 -34 32
-23 -10 28 -45 65 -61 65 -7 0 -13 5 -13 10 0 6 -11 10 -24 10 -14 0 -28 -4
-31 -10z"/>
<path d="M591 2083 c-39 -19 -85 -84 -78 -110 4 -16 5 -16 6 2 1 22 39 67 86
102 36 26 32 28 -14 6z"/>
<path d="M303 2070 c0 -41 2 -58 4 -37 2 20 2 54 0 75 -2 20 -4 3 -4 -38z"/>
<path d="M605 792 c-38 -59 -96 -142 -129 -185 -53 -70 -58 -80 -44 -93 14
-14 20 -9 59 48 88 126 209 315 209 326 0 33 -32 0 -95 -96z"/>
<path d="M1435 880 c-3 -4 50 -92 118 -194 113 -171 125 -185 142 -173 17 13
14 19 -41 88 -32 41 -88 121 -124 176 -63 99 -84 121 -95 103z"/>
<path d="M840 702 c0 -4 19 -26 42 -47 l41 -40 -38 48 c-40 49 -45 53 -45 39z"/>
<path d="M195 521 c-118 -53 -181 -221 -125 -331 34 -68 54 -63 25 7 -19 45
-19 116 -1 151 34 64 116 110 176 97 16 -3 37 -2 47 3 15 9 11 11 -20 17 -37
7 -74 4 -127 -11 -22 -7 -23 -6 -12 8 27 34 78 48 168 48 79 0 86 1 68 15 -28
21 -149 19 -199 -4z"/>
<path d="M1741 526 c-10 -12 -1 -14 59 -15 94 -1 140 -14 175 -52 l30 -31 -35
21 c-37 22 -116 28 -155 11 -24 -10 -13 -13 61 -14 69 -1 128 -41 156 -104 21
-47 21 -59 -8 -176 -10 -42 9 -26 35 29 21 46 30 149 12 159 -4 3 -11 18 -14
33 -8 42 -74 113 -125 134 -54 23 -173 26 -191 5z"/>
<path d="M1618 456 c-37 -34 -88 -107 -88 -127 0 -15 38 -5 113 28 31 14 57
32 57 39 0 18 -3 18 -47 -6 -73 -39 -84 -19 -23 43 50 49 39 70 -12 23z"/>
<path d="M482 442 c71 -70 72 -72 51 -72 -10 0 -31 7 -47 15 -32 17 -56 19
-56 6 0 -16 155 -79 167 -68 18 18 -98 157 -132 157 -17 0 -15 -5 17 -38z"/>
<path d="M330 419 c0 -12 -141 -211 -177 -251 l-25 -26 22 -22 c12 -12 22 -20
23 -18 1 2 21 26 43 53 70 86 184 235 184 239 0 4 -59 36 -67 36 -1 0 -3 -5
-3 -11z"/>
<path d="M1758 414 c-16 -8 -28 -17 -28 -19 0 -7 51 -75 145 -193 l80 -101 22
21 22 20 -30 33 c-17 18 -62 79 -101 136 -39 57 -73 107 -77 111 -3 3 -18 0
-33 -8z"/>
<path d="M95 100 c-22 -24 -13 -53 16 -48 33 5 46 32 26 52 -20 20 -20 20 -42
-4z"/>
<path d="M1991 103 c-17 -18 -4 -46 24 -51 29 -6 39 13 20 42 -20 30 -25 31
-44 9z"/>
</g>
</svg>
